<?xml version="1.0" encoding="UTF-8" standalone="no"?>
<!-- Created with Inkscape (http://www.inkscape.org/) -->

<svg
   xmlns:dc="http://purl.org/dc/elements/1.1/"
   xmlns:cc="http://creativecommons.org/ns#"
   xmlns:rdf="http://www.w3.org/1999/02/22-rdf-syntax-ns#"
   xmlns:svg="http://www.w3.org/2000/svg"
   xmlns="http://www.w3.org/2000/svg"
   xmlns:sodipodi="http://sodipodi.sourceforge.net/DTD/sodipodi-0.dtd"
   xmlns:inkscape="http://www.inkscape.org/namespaces/inkscape"
   id="svg2"
   version="1.0"
   viewBox="0 0 10357.508 6366.0131"
   inkscape:version="0.91 r13725"
   sodipodi:docname="a4c_website.svg"
   width="10357.508"
   height="6366.0132">
  <defs
     id="defs4190">
    <inkscape:perspective
       sodipodi:type="inkscape:persp3d"
       inkscape:vp_x="0 : 0.5 : 1"
       inkscape:vp_y="0 : 1.2159829 : 0"
       inkscape:vp_z="1 : 0.5 : 1"
       inkscape:persp3d-origin="0.50000001 : 0.33333334 : 1"
       id="perspective4206" />
  </defs>
  <sodipodi:namedview
     pagecolor="#ffffff"
     bordercolor="#666666"
     borderopacity="1"
     objecttolerance="10"
     gridtolerance="10"
     guidetolerance="10"
     inkscape:pageopacity="0"
     inkscape:pageshadow="2"
     inkscape:window-width="1440"
     inkscape:window-height="855"
     id="namedview4188"
     showgrid="false"
     inkscape:zoom="0.0625"
     inkscape:cx="5688.2351"
     inkscape:cy="1505.9772"
     inkscape:window-x="0"
     inkscape:window-y="1"
     inkscape:window-maximized="1"
     inkscape:current-layer="svg2"
     fit-margin-top="0"
     fit-margin-left="0"
     fit-margin-right="0"
     fit-margin-bottom="0" />
  <metadata
     id="metadata4186">
    <rdf:RDF>
      <cc:Work>
        <dc:format>image/svg+xml</dc:format>
        <dc:type
           rdf:resource="http://purl.org/dc/dcmitype/StillImage" />
        <cc:license
           rdf:resource="http://creativecommons.org/publicdomain/zero/1.0/" />
        <dc:publisher>
          <cc:Agent
             rdf:about="http://openclipart.org/">
            <dc:title>Openclipart</dc:title>
          </cc:Agent>
        </dc:publisher>
        <dc:title></dc:title>
      </cc:Work>
      <cc:License
         rdf:about="http://creativecommons.org/publicdomain/zero/1.0/">
        <cc:permits
           rdf:resource="http://creativecommons.org/ns#Reproduction" />
        <cc:permits
           rdf:resource="http://creativecommons.org/ns#Distribution" />
        <cc:permits
           rdf:resource="http://creativecommons.org/ns#DerivativeWorks" />
      </cc:License>
    </rdf:RDF>
  </metadata>
  <g
     id="g4241"
     transform="translate(8915.0409,7209.5683)">
    <g
       id="g4243"
       transform="translate(-959.65511,-3563.4683)">
      <path
         sodipodi:nodetypes="ccccccccc"
         inkscape:connector-curvature="0"
         id="path4245"
         d="m 1544.9582,313.09717 315.1948,0 m 0,315.19478 -315.1948,0 0,0 0,-315.19478 315.1948,0 0,315.19478 z"
         style="opacity:1;fill:#820e0e;fill-opacity:1;stroke:#000000;stroke-width:3;stroke-linecap:square;stroke-miterlimit:4;stroke-dasharray:none;stroke-opacity:1" />
      <path
         style="opacity:1;fill:#a81212;fill-opacity:1;stroke:#000000;stroke-width:3;stroke-linecap:square;stroke-miterlimit:4;stroke-dasharray:none;stroke-opacity:1"
         d="m 1977.7738,195.43656 -117.6208,117.66061 0,315.19478 117.9748,-117.97488 z"
         id="path4247"
         inkscape:connector-curvature="0"
         sodipodi:nodetypes="ccccc" />
      <path
         style="opacity:1;fill:#dc1818;fill-opacity:1;stroke:#000000;stroke-width:3;stroke-linecap:square;stroke-miterlimit:4;stroke-dasharray:none;stroke-opacity:1"
         d="m 1544.9582,313.09717 315.1948,0 m -315.1948,0 117.6597,-117.65974 315.1559,-8.7e-4 -117.6208,117.66061"
         id="path4249"
         inkscape:connector-curvature="0"
         sodipodi:nodetypes="cccccc" />
    </g>
    <ellipse
       transform="matrix(-0.03356838,0.99943642,-0.99943642,-0.03356838,0,0)"
       ry="21.700417"
       rx="48.570473"
       cy="-859.98682"
       cx="-3182.2727"
       id="ellipse4251"
       style="opacity:1;fill:#ffffff;fill-opacity:1;stroke:#000000;stroke-width:2.02557135;stroke-linecap:square;stroke-miterlimit:4;stroke-dasharray:none;stroke-opacity:1" />
  </g>
  <g
     id="g4274"
     transform="translate(9323.0409,7625.5683)">
    <g
       transform="translate(-959.65511,-3982.0755)"
       id="g4276">
      <path
         style="opacity:1;fill:#670e82;fill-opacity:1;stroke:#000000;stroke-width:3;stroke-linecap:square;stroke-miterlimit:4;stroke-dasharray:none;stroke-opacity:1"
         d="m 1544.9582,313.09717 315.1948,0 m 0,315.19478 -315.1948,0 0,0 0,-315.19478 315.1948,0 0,315.19478 z"
         id="path4278"
         inkscape:connector-curvature="0"
         sodipodi:nodetypes="ccccccccc" />
      <path
         sodipodi:nodetypes="ccccc"
         inkscape:connector-curvature="0"
         id="path4280"
         d="m 1977.7738,195.43656 -117.6208,117.66061 0,315.19478 117.9748,-117.97488 z"
         style="opacity:1;fill:#8612a8;fill-opacity:1;stroke:#000000;stroke-width:3;stroke-linecap:square;stroke-miterlimit:4;stroke-dasharray:none;stroke-opacity:1" />
      <path
         sodipodi:nodetypes="cccccc"
         inkscape:connector-curvature="0"
         id="path4282"
         d="m 1544.9582,313.09717 315.1948,0 m -315.1948,0 117.6597,-117.65974 315.1559,-8.7e-4 -117.6208,117.66061"
         style="opacity:1;fill:#b018dc;fill-opacity:1;stroke:#000000;stroke-width:3;stroke-linecap:square;stroke-miterlimit:4;stroke-dasharray:none;stroke-opacity:1" />
    </g>
    <ellipse
       style="opacity:1;fill:#ffffff;fill-opacity:1;stroke:#000000;stroke-width:2.02557135;stroke-linecap:square;stroke-miterlimit:4;stroke-dasharray:none;stroke-opacity:1"
       id="ellipse4284"
       cx="1214.5314"
       cy="-3623.0708"
       rx="48.570473"
       ry="21.700417"
       transform="matrix(0.99380437,-0.11114349,0.11114349,0.99380437,0,0)" />
  </g>
  <g
     id="g4331"
     transform="translate(4139.0409,4337.5683)">
    <g
       id="g4234"
       transform="translate(-1750.1993,-3563.4683)">
      <path
         sodipodi:nodetypes="ccccccccc"
         inkscape:connector-curvature="0"
         id="path4236"
         d="m 1544.9582,313.09717 315.1948,0 m 0,315.19478 -315.1948,0 0,0 0,-315.19478 315.1948,0 0,315.19478 z"
         style="opacity:1;fill:#e8e135;fill-opacity:1;stroke:#000000;stroke-width:3;stroke-linecap:square;stroke-miterlimit:4;stroke-dasharray:none;stroke-opacity:1" />
      <path
         style="opacity:1;fill:#e8e25d;fill-opacity:1;stroke:#000000;stroke-width:3;stroke-linecap:square;stroke-miterlimit:4;stroke-dasharray:none;stroke-opacity:1"
         d="m 1977.7738,195.43656 -117.6208,117.66061 0,315.19478 117.9748,-117.97488 z"
         id="path4238"
         inkscape:connector-curvature="0"
         sodipodi:nodetypes="ccccc" />
      <path
         style="opacity:1;fill:#f3ec5a;fill-opacity:1;stroke:#000000;stroke-width:3;stroke-linecap:square;stroke-miterlimit:4;stroke-dasharray:none;stroke-opacity:1"
         d="m 1544.9582,313.09717 315.1948,0 m -315.1948,0 117.6597,-117.65974 315.1559,-8.7e-4 -117.6208,117.66061"
         id="path4240"
         inkscape:connector-curvature="0"
         sodipodi:nodetypes="cccccc" />
    </g>
    <ellipse
       transform="matrix(-0.03356838,0.99943642,-0.99943642,-0.03356838,0,0)"
       ry="21.700417"
       rx="48.570473"
       cy="-87.399635"
       cx="-3246.3743"
       id="ellipse4310"
       style="opacity:1;fill:#ffffff;fill-opacity:1;stroke:#000000;stroke-width:2.02557135;stroke-linecap:square;stroke-miterlimit:4;stroke-dasharray:none;stroke-opacity:1" />
    <ellipse
       style="opacity:1;fill:#ffffff;fill-opacity:1;stroke:#000000;stroke-width:2.02557135;stroke-linecap:square;stroke-miterlimit:4;stroke-dasharray:none;stroke-opacity:1"
       id="ellipse4312"
       cx="-3069.0635"
       cy="-51.331341"
       rx="48.570473"
       ry="21.700417"
       transform="matrix(-0.03356838,0.99943642,-0.99943642,-0.03356838,0,0)" />
  </g>
  <g
     id="g4339"
     transform="translate(4139.0409,4337.5683)">
    <g
       id="g4287"
       transform="translate(-1354.9272,-3563.4683)">
      <path
         sodipodi:nodetypes="ccccccccc"
         inkscape:connector-curvature="0"
         id="path4289"
         d="m 1544.9582,313.09717 315.1948,0 m 0,315.19478 -315.1948,0 0,0 0,-315.19478 315.1948,0 0,315.19478 z"
         style="opacity:1;fill:#2c820e;fill-opacity:1;stroke:#000000;stroke-width:3;stroke-linecap:square;stroke-miterlimit:4;stroke-dasharray:none;stroke-opacity:1" />
      <path
         style="opacity:1;fill:#39a812;fill-opacity:1;stroke:#000000;stroke-width:3;stroke-linecap:square;stroke-miterlimit:4;stroke-dasharray:none;stroke-opacity:1"
         d="m 1977.7738,195.43656 -117.6208,117.66061 0,315.19478 117.9748,-117.97488 z"
         id="path4291"
         inkscape:connector-curvature="0"
         sodipodi:nodetypes="ccccc" />
      <path
         style="opacity:1;fill:#4bdc18;fill-opacity:1;stroke:#000000;stroke-width:3;stroke-linecap:square;stroke-miterlimit:4;stroke-dasharray:none;stroke-opacity:1"
         d="m 1544.9582,313.09717 315.1948,0 m -315.1948,0 117.6597,-117.65974 315.1559,-8.7e-4 -117.6208,117.66061"
         id="path4293"
         inkscape:connector-curvature="0"
         sodipodi:nodetypes="cccccc" />
    </g>
    <ellipse
       style="opacity:1;fill:#ffffff;fill-opacity:1;stroke:#000000;stroke-width:2.02557135;stroke-linecap:square;stroke-miterlimit:4;stroke-dasharray:none;stroke-opacity:1"
       id="ellipse4302"
       cx="769.88483"
       cy="-3246.1553"
       rx="48.570473"
       ry="21.700417"
       transform="matrix(0.99380437,-0.11114349,0.11114349,0.99380437,0,0)" />
  </g>
  <path
     style="fill:#203ce7;fill-opacity:1;fill-rule:evenodd;stroke:#000000;stroke-width:6.21977854;stroke-linecap:butt;stroke-linejoin:miter;stroke-miterlimit:4;stroke-dasharray:none;stroke-opacity:1"
     d="m 553.13684,1106.6493 c -15.2431,-0.05 -30.5481,0.1141 -45.8574,0.4902 -221.8662,5.5051 -395.9365,61.9747 -432.374996,93.0723 -38.5597,33.2189 -50.1615,66.4934 -59.8906,92.7715 -10.9652998,38.0969 -10.9374998,78.5987 -11.9023998,118.0293 2.2289,54.5255 -0.402,113.1328 27.6542998,162.0546 40.5885,49.9271 41.3148,117.175 57.2012,176.795 14.948696,31.8867 34.394296,62.2711 45.505896,96.1308 11.6124,48.5143 46.3918,86.3803 81.6133,119.7422 163.7852,178.5943 559.9577,367.5914 625.3105,315.9863 38.9632,-20.313 76.2763,-66.2143 56.1484,-111.7617 -16.5551,-41.4907 18.6503,-80.4537 16.7168,-122.3828 3.5994,-32.4607 -5.8312,-90.656 44.834,-80.9746 41.8229,7.015 95.20516,-25.4188 71.97266,-72.4394 -17.3565,-47.3763 -32.94466,-95.4635 -47.46676,-143.8067 -20.5852,-47.7658 28.56806,-79.5854 42.58196,-119.6836 11.4367,-33.884 -9.1328,-70.0951 5.9824,-104.1191 10.8731,-74.7493 -14.542,-147.8367 -27.3984,-220.5684 -8.79486,-35.2473 -19.44886,-56.5928 -38.41596,-102.2168 -44.423,-52.6951 -203.4376,-96.3955 -412.2149,-97.1191 z m -2,5.6562 a 127.32831,459.31524 88.591837 0 1 416.4493,116.4942 127.32831,459.31524 88.591837 0 1 -456.0489,138.5761 127.32831,459.31524 88.591837 0 1 -462.304696,-116.0019 127.32831,459.31524 88.591837 0 1 456.046896,-138.5781 127.32831,459.31524 88.591837 0 1 45.8574,-0.4903 z"
     id="path4193"
     inkscape:connector-curvature="0" />
  <path
     style="opacity:1;fill:#203ce7;fill-opacity:1;stroke:none;stroke-width:3;stroke-linecap:square;stroke-miterlimit:4;stroke-dasharray:none;stroke-opacity:1"
     d="m 2845.9511,864 a 280.01428,280.01428 0 0 0 -280.0157,280.0157 280.01428,280.01428 0 0 0 169.8887,257.3866 l -51.0937,0 c -65.8118,0 -118.795,52.9812 -118.795,118.793 l 0,287.7539 560.0293,0 0,-287.7539 c 0,-65.8118 -52.983,-118.793 -118.7949,-118.793 l -51.7148,0 A 280.01428,280.01428 0 0 0 3125.9647,1144.0157 280.01428,280.01428 0 0 0 2845.9511,864 Z"
     id="path4202"
     inkscape:connector-curvature="0" />
  <path
     id="path4267"
     d="m 6321.951,0 a 280.01428,280.01428 0 0 0 -280.0157,280.0157 280.01428,280.01428 0 0 0 169.8887,257.3867 l -51.0937,0 c -65.8118,0 -118.795,52.9811 -118.795,118.793 l 0,287.7538 560.0293,0 0,-287.7538 c 0,-65.8119 -52.983,-118.793 -118.7949,-118.793 l -51.7148,0 A 280.01428,280.01428 0 0 0 6601.9646,280.0157 280.01428,280.01428 0 0 0 6321.951,0 Z"
     style="opacity:1;fill:#820e0e;fill-opacity:1;stroke:none;stroke-width:3;stroke-linecap:square;stroke-miterlimit:4;stroke-dasharray:none;stroke-opacity:1"
     inkscape:connector-curvature="0" />
  <path
     inkscape:connector-curvature="0"
     id="path4269"
     d="m 830.54194,2474.666 c 15.2431,-0.049 30.5481,0.1142 45.8574,0.4903 221.86616,5.5051 395.93646,61.9746 432.37496,93.0722 38.5597,33.2189 50.1615,66.4934 59.8906,92.7715 10.9653,38.0969 10.9375,78.5987 11.9024,118.0293 -2.2289,54.5255 0.402,113.1328 -27.6543,162.0546 -40.5885,49.9271 -41.3148,117.175 -57.2012,176.795 -14.9487,31.8867 -34.3943,62.2711 -45.5059,96.1308 -11.6124,48.5143 -46.3918,86.3803 -81.6133,119.7422 -163.7852,178.5943 -559.95766,367.5914 -625.31046,315.9863 -38.9632,-20.313 -76.2763,-66.2143 -56.1484,-111.7617 16.5551,-41.4907 -18.6503,-80.4537 -16.7168,-122.3828 -3.5994,-32.4607 5.8312,-90.656 -44.834,-80.9746 -41.8229,7.015 -95.2053,-25.4188 -71.9727,-72.4394 17.3565,-47.3763 32.9447,-95.4635 47.4668,-143.8067 20.5852,-47.7658 -28.5681,-79.5854 -42.582,-119.6836 -11.4367,-33.884 9.1327,-70.0951 -5.9825,-104.1191 -10.8731,-74.7493 14.5421,-147.8367 27.3985,-220.5684 8.7949,-35.2473 19.4489,-56.5928 38.416,-102.2167 44.423,-52.6951 203.4376,-96.3955 412.2149,-97.1192 z m 2,5.6563 a 459.31524,127.32831 1.408163 0 0 -416.4493,116.4941 459.31524,127.32831 1.408163 0 0 456.0489,138.5762 459.31524,127.32831 1.408163 0 0 462.30466,-116.002 459.31524,127.32831 1.408163 0 0 -456.04686,-138.5781 459.31524,127.32831 1.408163 0 0 -45.8574,-0.4902 z"
     style="fill:#820e0e;fill-opacity:1;fill-rule:evenodd;stroke:#000000;stroke-width:6.21977854;stroke-linecap:butt;stroke-linejoin:miter;stroke-miterlimit:4;stroke-dasharray:none;stroke-opacity:1" />
  <path
     style="fill:none;fill-rule:evenodd;stroke:#000000;stroke-width:3;stroke-linecap:butt;stroke-linejoin:miter;stroke-miterlimit:4;stroke-dasharray:none;stroke-opacity:1"
     d="m 3696.6978,1421.0367 c 0,71.885 208.1694,173.1216 426,173.1216 221.2436,0 426,10.5327 426,146.8784 0,-135.8666 208.3631,-146.8784 426.0304,-146.8784 205.0136,0 425.9696,7.4857 425.9696,-173.1216"
     id="path4271"
     inkscape:connector-curvature="0"
     sodipodi:nodetypes="cscsc" />
  <g
     id="g4346"
     transform="translate(4139.0409,4337.5683)">
    <g
       transform="translate(-959.65511,-3563.4683)"
       id="g4210">
      <path
         style="opacity:1;fill:#820e0e;fill-opacity:1;stroke:#000000;stroke-width:3;stroke-linecap:square;stroke-miterlimit:4;stroke-dasharray:none;stroke-opacity:1"
         d="m 1544.9582,313.09717 315.1948,0 m 0,315.19478 -315.1948,0 0,0 0,-315.19478 315.1948,0 0,315.19478 z"
         id="path4212"
         inkscape:connector-curvature="0"
         sodipodi:nodetypes="ccccccccc" />
      <path
         sodipodi:nodetypes="ccccc"
         inkscape:connector-curvature="0"
         id="path4214"
         d="m 1977.7738,195.43656 -117.6208,117.66061 0,315.19478 117.9748,-117.97488 z"
         style="opacity:1;fill:#a81212;fill-opacity:1;stroke:#000000;stroke-width:3;stroke-linecap:square;stroke-miterlimit:4;stroke-dasharray:none;stroke-opacity:1" />
      <path
         sodipodi:nodetypes="cccccc"
         inkscape:connector-curvature="0"
         id="path4216"
         d="m 1544.9582,313.09717 315.1948,0 m -315.1948,0 117.6597,-117.65974 315.1559,-8.7e-4 -117.6208,117.66061"
         style="opacity:1;fill:#dc1818;fill-opacity:1;stroke:#000000;stroke-width:3;stroke-linecap:square;stroke-miterlimit:4;stroke-dasharray:none;stroke-opacity:1" />
    </g>
    <ellipse
       style="opacity:1;fill:#ffffff;fill-opacity:1;stroke:#000000;stroke-width:2.02557135;stroke-linecap:square;stroke-miterlimit:4;stroke-dasharray:none;stroke-opacity:1"
       id="ellipse4306"
       cx="-3182.2727"
       cy="-859.98682"
       rx="48.570473"
       ry="21.700417"
       transform="matrix(-0.03356838,0.99943642,-0.99943642,-0.03356838,0,0)" />
  </g>
  <g
     id="g4324"
     transform="translate(4139.0409,4337.5683)">
    <g
       id="g4191"
       transform="translate(-1750.1993,-3982.0755)">
      <path
         sodipodi:nodetypes="ccccccccc"
         inkscape:connector-curvature="0"
         id="path4194"
         d="m 1544.9582,313.09717 315.1948,0 m 0,315.19478 -315.1948,0 0,0 0,-315.19478 315.1948,0 0,315.19478 z"
         style="opacity:1;fill:#203ce7;fill-opacity:1;stroke:#000000;stroke-width:3;stroke-linecap:square;stroke-miterlimit:4;stroke-dasharray:none;stroke-opacity:1" />
      <path
         style="opacity:1;fill:#475feb;fill-opacity:1;stroke:#000000;stroke-width:3;stroke-linecap:square;stroke-miterlimit:4;stroke-dasharray:none;stroke-opacity:1"
         d="m 1977.7738,195.43656 -117.6208,117.66061 0,315.19478 117.9748,-117.97488 z"
         id="path4196"
         inkscape:connector-curvature="0"
         sodipodi:nodetypes="ccccc" />
      <path
         style="opacity:1;fill:#7c8df1;fill-opacity:1;stroke:#000000;stroke-width:3;stroke-linecap:square;stroke-miterlimit:4;stroke-dasharray:none;stroke-opacity:1"
         d="m 1544.9582,313.09717 315.1948,0 m -315.1948,0 117.6597,-117.65974 315.1559,-8.7e-4 -117.6208,117.66061"
         id="path4198"
         inkscape:connector-curvature="0"
         sodipodi:nodetypes="cccccc" />
    </g>
    <ellipse
       transform="matrix(-0.03356838,0.99943642,-0.99943642,-0.03356838,0,0)"
       ry="21.700417"
       rx="48.570473"
       cy="-52.805553"
       cx="-3561.3906"
       id="ellipse4308"
       style="opacity:1;fill:#ffffff;fill-opacity:1;stroke:#000000;stroke-width:2.02557135;stroke-linecap:square;stroke-miterlimit:4;stroke-dasharray:none;stroke-opacity:1" />
  </g>
  <g
     id="g4226"
     transform="translate(2784.1137,355.4928)">
    <path
       sodipodi:nodetypes="ccccccccc"
       inkscape:connector-curvature="0"
       id="path4228"
       d="m 1544.9582,313.09717 315.1948,0 m 0,315.19478 -315.1948,0 0,0 0,-315.19478 315.1948,0 0,315.19478 z"
       style="opacity:1;fill:#0e7782;fill-opacity:1;stroke:#000000;stroke-width:3;stroke-linecap:square;stroke-miterlimit:4;stroke-dasharray:none;stroke-opacity:1" />
    <path
       style="opacity:1;fill:#1298a8;fill-opacity:1;stroke:#000000;stroke-width:3;stroke-linecap:square;stroke-miterlimit:4;stroke-dasharray:none;stroke-opacity:1"
       d="m 1977.7738,195.43656 -117.6208,117.66061 0,315.19478 117.9748,-117.97488 z"
       id="path4230"
       inkscape:connector-curvature="0"
       sodipodi:nodetypes="ccccc" />
    <path
       style="opacity:1;fill:#18c7dc;fill-opacity:1;stroke:#000000;stroke-width:3;stroke-linecap:square;stroke-miterlimit:4;stroke-dasharray:none;stroke-opacity:1"
       d="m 1544.9582,313.09717 315.1948,0 m -315.1948,0 117.6597,-117.65974 315.1559,-8.7e-4 -117.6208,117.66061"
       id="path4232"
       inkscape:connector-curvature="0"
       sodipodi:nodetypes="cccccc" />
  </g>
  <g
     id="g4353"
     transform="translate(4139.0409,4337.5683)">
    <g
       id="g4218"
       transform="translate(-959.65511,-3982.0755)">
      <path
         sodipodi:nodetypes="ccccccccc"
         inkscape:connector-curvature="0"
         id="path4220"
         d="m 1544.9582,313.09717 315.1948,0 m 0,315.19478 -315.1948,0 0,0 0,-315.19478 315.1948,0 0,315.19478 z"
         style="opacity:1;fill:#670e82;fill-opacity:1;stroke:#000000;stroke-width:3;stroke-linecap:square;stroke-miterlimit:4;stroke-dasharray:none;stroke-opacity:1" />
      <path
         style="opacity:1;fill:#8612a8;fill-opacity:1;stroke:#000000;stroke-width:3;stroke-linecap:square;stroke-miterlimit:4;stroke-dasharray:none;stroke-opacity:1"
         d="m 1977.7738,195.43656 -117.6208,117.66061 0,315.19478 117.9748,-117.97488 z"
         id="path4222"
         inkscape:connector-curvature="0"
         sodipodi:nodetypes="ccccc" />
      <path
         style="opacity:1;fill:#b018dc;fill-opacity:1;stroke:#000000;stroke-width:3;stroke-linecap:square;stroke-miterlimit:4;stroke-dasharray:none;stroke-opacity:1"
         d="m 1544.9582,313.09717 315.1948,0 m -315.1948,0 117.6597,-117.65974 315.1559,-8.7e-4 -117.6208,117.66061"
         id="path4224"
         inkscape:connector-curvature="0"
         sodipodi:nodetypes="cccccc" />
    </g>
    <ellipse
       transform="matrix(0.99380437,-0.11114349,0.11114349,0.99380437,0,0)"
       ry="21.700417"
       rx="48.570473"
       cy="-3623.0708"
       cx="1214.5314"
       id="ellipse4304"
       style="opacity:1;fill:#ffffff;fill-opacity:1;stroke:#000000;stroke-width:2.02557135;stroke-linecap:square;stroke-miterlimit:4;stroke-dasharray:none;stroke-opacity:1" />
  </g>
  <g
     id="g4289"
     transform="translate(5546.0548,3671.7415)">
    <path
       sodipodi:nodetypes="ccccccccc"
       inkscape:connector-curvature="0"
       id="path4292"
       d="m 1544.9582,313.09717 315.1948,0 m 0,315.19478 -315.1948,0 0,0 0,-315.19478 315.1948,0 0,315.19478 z"
       style="opacity:1;fill:#2c820e;fill-opacity:1;stroke:#000000;stroke-width:3;stroke-linecap:square;stroke-miterlimit:4;stroke-dasharray:none;stroke-opacity:1" />
    <path
       style="opacity:1;fill:#39a812;fill-opacity:1;stroke:#000000;stroke-width:3;stroke-linecap:square;stroke-miterlimit:4;stroke-dasharray:none;stroke-opacity:1"
       d="m 1977.7738,195.43656 -117.6208,117.66061 0,315.19478 117.9748,-117.97488 z"
       id="path4294"
       inkscape:connector-curvature="0"
       sodipodi:nodetypes="ccccc" />
    <path
       style="opacity:1;fill:#4bdc18;fill-opacity:1;stroke:#000000;stroke-width:3;stroke-linecap:square;stroke-miterlimit:4;stroke-dasharray:none;stroke-opacity:1"
       d="m 1544.9582,313.09717 315.1948,0 m -315.1948,0 117.6597,-117.65974 315.1559,-8.7e-4 -117.6208,117.66061"
       id="path4296"
       inkscape:connector-curvature="0"
       sodipodi:nodetypes="cccccc" />
  </g>
  <ellipse
     style="opacity:1;fill:#ffffff;fill-opacity:1;stroke:#000000;stroke-width:2.02557135;stroke-linecap:square;stroke-miterlimit:4;stroke-dasharray:none;stroke-opacity:1"
     id="path4298"
     cx="6821.4219"
     cy="4709.7661"
     rx="48.570473"
     ry="21.700417"
     transform="matrix(0.99380437,-0.11114349,0.11114349,0.99380437,0,0)" />
  <path
     style="fill:none;fill-rule:evenodd;stroke:#000000;stroke-width:20;stroke-linecap:round;stroke-linejoin:miter;stroke-miterlimit:4;stroke-dasharray:none;stroke-opacity:1"
     d="m 7302.6187,3916.7726 c 0,-321.4737 158.3919,-146.9338 158.3919,-492.1463"
     id="path4300"
     inkscape:connector-curvature="0"
     sodipodi:nodetypes="cc" />
  <g
     transform="translate(4538.0548,3671.7415)"
     id="g4456">
    <path
       style="opacity:1;fill:#2c820e;fill-opacity:1;stroke:#000000;stroke-width:3;stroke-linecap:square;stroke-miterlimit:4;stroke-dasharray:none;stroke-opacity:1"
       d="m 1544.9582,313.09717 315.1948,0 m 0,315.19478 -315.1948,0 0,0 0,-315.19478 315.1948,0 0,315.19478 z"
       id="path4458"
       inkscape:connector-curvature="0"
       sodipodi:nodetypes="ccccccccc" />
    <path
       sodipodi:nodetypes="ccccc"
       inkscape:connector-curvature="0"
       id="path4460"
       d="m 1977.7738,195.43656 -117.6208,117.66061 0,315.19478 117.9748,-117.97488 z"
       style="opacity:1;fill:#39a812;fill-opacity:1;stroke:#000000;stroke-width:3;stroke-linecap:square;stroke-miterlimit:4;stroke-dasharray:none;stroke-opacity:1" />
    <path
       sodipodi:nodetypes="cccccc"
       inkscape:connector-curvature="0"
       id="path4462"
       d="m 1544.9582,313.09717 315.1948,0 m -315.1948,0 117.6597,-117.65974 315.1559,-8.7e-4 -117.6208,117.66061"
       style="opacity:1;fill:#4bdc18;fill-opacity:1;stroke:#000000;stroke-width:3;stroke-linecap:square;stroke-miterlimit:4;stroke-dasharray:none;stroke-opacity:1" />
  </g>
  <ellipse
     transform="matrix(0.99380437,-0.11114349,0.11114349,0.99380437,0,0)"
     ry="21.700417"
     rx="48.570473"
     cy="4596.3999"
     cx="5807.7412"
     id="ellipse4464"
     style="opacity:1;fill:#ffffff;fill-opacity:1;stroke:#000000;stroke-width:2.02557135;stroke-linecap:square;stroke-miterlimit:4;stroke-dasharray:none;stroke-opacity:1" />
  <path
     sodipodi:nodetypes="cc"
     inkscape:connector-curvature="0"
     id="path4466"
     d="m 6282.6187,3916.7726 c 0,-321.4737 158.3919,-146.9338 158.3919,-492.1463"
     style="fill:none;fill-rule:evenodd;stroke:#000000;stroke-width:20;stroke-linecap:round;stroke-linejoin:miter;stroke-miterlimit:4;stroke-dasharray:none;stroke-opacity:1" />
  <g
     id="g4407"
     transform="translate(5691.0409,6413.5682)">
    <g
       id="g4409"
       transform="translate(-959.65511,-3563.4683)">
      <path
         sodipodi:nodetypes="ccccccccc"
         inkscape:connector-curvature="0"
         id="path4411"
         d="m 1544.9582,313.09717 315.1948,0 m 0,315.19478 -315.1948,0 0,0 0,-315.19478 315.1948,0 0,315.19478 z"
         style="opacity:1;fill:#820e0e;fill-opacity:1;stroke:#000000;stroke-width:3;stroke-linecap:square;stroke-miterlimit:4;stroke-dasharray:none;stroke-opacity:1" />
      <path
         style="opacity:1;fill:#a81212;fill-opacity:1;stroke:#000000;stroke-width:3;stroke-linecap:square;stroke-miterlimit:4;stroke-dasharray:none;stroke-opacity:1"
         d="m 1977.7738,195.43656 -117.6208,117.66061 0,315.19478 117.9748,-117.97488 z"
         id="path4413"
         inkscape:connector-curvature="0"
         sodipodi:nodetypes="ccccc" />
      <path
         style="opacity:1;fill:#dc1818;fill-opacity:1;stroke:#000000;stroke-width:3;stroke-linecap:square;stroke-miterlimit:4;stroke-dasharray:none;stroke-opacity:1"
         d="m 1544.9582,313.09717 315.1948,0 m -315.1948,0 117.6597,-117.65974 315.1559,-8.7e-4 -117.6208,117.66061"
         id="path4415"
         inkscape:connector-curvature="0"
         sodipodi:nodetypes="cccccc" />
    </g>
    <ellipse
       transform="matrix(-0.03356838,0.99943642,-0.99943642,-0.03356838,0,0)"
       ry="21.700417"
       rx="48.570473"
       cy="-859.98682"
       cx="-3182.2727"
       id="ellipse4417"
       style="opacity:1;fill:#ffffff;fill-opacity:1;stroke:#000000;stroke-width:2.02557135;stroke-linecap:square;stroke-miterlimit:4;stroke-dasharray:none;stroke-opacity:1" />
  </g>
  <path
     style="fill:none;fill-rule:evenodd;stroke:#000000;stroke-width:20;stroke-linecap:round;stroke-linejoin:miter;stroke-miterlimit:4;stroke-dasharray:none;stroke-opacity:1"
     d="m 6671.7414,3271.5034 c 321.4737,0 282.9338,66.392 628.1464,66.392"
     id="path4468"
     inkscape:connector-curvature="0"
     sodipodi:nodetypes="cc" />
  <g
     id="g4372"
     transform="translate(7471.0409,6837.5682)">
    <g
       transform="translate(-1750.1993,-3982.0755)"
       id="g4374">
      <path
         style="opacity:1;fill:#203ce7;fill-opacity:1;stroke:#000000;stroke-width:3;stroke-linecap:square;stroke-miterlimit:4;stroke-dasharray:none;stroke-opacity:1"
         d="m 1544.9582,313.09717 315.1948,0 m 0,315.19478 -315.1948,0 0,0 0,-315.19478 315.1948,0 0,315.19478 z"
         id="path4376"
         inkscape:connector-curvature="0"
         sodipodi:nodetypes="ccccccccc" />
      <path
         sodipodi:nodetypes="ccccc"
         inkscape:connector-curvature="0"
         id="path4378"
         d="m 1977.7738,195.43656 -117.6208,117.66061 0,315.19478 117.9748,-117.97488 z"
         style="opacity:1;fill:#475feb;fill-opacity:1;stroke:#000000;stroke-width:3;stroke-linecap:square;stroke-miterlimit:4;stroke-dasharray:none;stroke-opacity:1" />
      <path
         sodipodi:nodetypes="cccccc"
         inkscape:connector-curvature="0"
         id="path4380"
         d="m 1544.9582,313.09717 315.1948,0 m -315.1948,0 117.6597,-117.65974 315.1559,-8.7e-4 -117.6208,117.66061"
         style="opacity:1;fill:#7c8df1;fill-opacity:1;stroke:#000000;stroke-width:3;stroke-linecap:square;stroke-miterlimit:4;stroke-dasharray:none;stroke-opacity:1" />
    </g>
    <ellipse
       style="opacity:1;fill:#ffffff;fill-opacity:1;stroke:#000000;stroke-width:2.02557135;stroke-linecap:square;stroke-miterlimit:4;stroke-dasharray:none;stroke-opacity:1"
       id="ellipse4382"
       cx="-3561.3906"
       cy="-52.805553"
       rx="48.570473"
       ry="21.700417"
       transform="matrix(-0.03356838,0.99943642,-0.99943642,-0.03356838,0,0)" />
  </g>
  <path
     sodipodi:nodetypes="cc"
     inkscape:connector-curvature="0"
     id="path4384"
     d="m 7647.7414,3283.5034 c 321.4737,0 82.9338,654.392 428.1464,654.392"
     style="fill:none;fill-rule:evenodd;stroke:#000000;stroke-width:20;stroke-linecap:round;stroke-linejoin:miter;stroke-miterlimit:4;stroke-dasharray:none;stroke-opacity:1" />
  <path
     style="fill:none;fill-rule:evenodd;stroke:#000000;stroke-width:20;stroke-linecap:round;stroke-linejoin:miter;stroke-miterlimit:4;stroke-dasharray:none;stroke-opacity:1"
     d="m 7647.7414,3283.5034 c 321.4737,0 82.9338,-73.608 428.1464,-73.608"
     id="path4454"
     inkscape:connector-curvature="0"
     sodipodi:nodetypes="cc" />
  <g
     transform="translate(6511.7974,3496.2529)"
     id="g4438">
    <path
       style="opacity:1;fill:#0e7782;fill-opacity:1;stroke:#000000;stroke-width:3;stroke-linecap:square;stroke-miterlimit:4;stroke-dasharray:none;stroke-opacity:1"
       d="m 1544.9582,313.09717 315.1948,0 m 0,315.19478 -315.1948,0 0,0 0,-315.19478 315.1948,0 0,315.19478 z"
       id="path4440"
       inkscape:connector-curvature="0"
       sodipodi:nodetypes="ccccccccc" />
    <path
       sodipodi:nodetypes="ccccc"
       inkscape:connector-curvature="0"
       id="path4442"
       d="m 1977.7738,195.43656 -117.6208,117.66061 0,315.19478 117.9748,-117.97488 z"
       style="opacity:1;fill:#1298a8;fill-opacity:1;stroke:#000000;stroke-width:3;stroke-linecap:square;stroke-miterlimit:4;stroke-dasharray:none;stroke-opacity:1" />
    <path
       sodipodi:nodetypes="cccccc"
       inkscape:connector-curvature="0"
       id="path4444"
       d="m 1544.9582,313.09717 315.1948,0 m -315.1948,0 117.6597,-117.65974 315.1559,-8.7e-4 -117.6208,117.66061"
       style="opacity:1;fill:#18c7dc;fill-opacity:1;stroke:#000000;stroke-width:3;stroke-linecap:square;stroke-miterlimit:4;stroke-dasharray:none;stroke-opacity:1" />
  </g>
  <g
     id="g4446"
     transform="translate(6511.7974,2744.2529)">
    <path
       sodipodi:nodetypes="ccccccccc"
       inkscape:connector-curvature="0"
       id="path4448"
       d="m 1544.9582,313.09717 315.1948,0 m 0,315.19478 -315.1948,0 0,0 0,-315.19478 315.1948,0 0,315.19478 z"
       style="opacity:1;fill:#0e7782;fill-opacity:1;stroke:#000000;stroke-width:3;stroke-linecap:square;stroke-miterlimit:4;stroke-dasharray:none;stroke-opacity:1" />
    <path
       style="opacity:1;fill:#1298a8;fill-opacity:1;stroke:#000000;stroke-width:3;stroke-linecap:square;stroke-miterlimit:4;stroke-dasharray:none;stroke-opacity:1"
       d="m 1977.7738,195.43656 -117.6208,117.66061 0,315.19478 117.9748,-117.97488 z"
       id="path4450"
       inkscape:connector-curvature="0"
       sodipodi:nodetypes="ccccc" />
    <path
       style="opacity:1;fill:#18c7dc;fill-opacity:1;stroke:#000000;stroke-width:3;stroke-linecap:square;stroke-miterlimit:4;stroke-dasharray:none;stroke-opacity:1"
       d="m 1544.9582,313.09717 315.1948,0 m -315.1948,0 117.6597,-117.65974 315.1559,-8.7e-4 -117.6208,117.66061"
       id="path4452"
       inkscape:connector-curvature="0"
       sodipodi:nodetypes="cccccc" />
  </g>
  <text
     xml:space="preserve"
     style="font-style:normal;font-weight:normal;font-size:40px;line-height:125%;font-family:sans-serif;letter-spacing:0px;word-spacing:0px;fill:#000000;fill-opacity:1;stroke:none;stroke-width:1px;stroke-linecap:butt;stroke-linejoin:miter;stroke-opacity:1"
     x="8555.041"
     y="287.94818"
     id="text4208"
     sodipodi:linespacing="125%"><tspan
       sodipodi:role="line"
       id="tspan4210"
       x="8555.041"
       y="287.94818" /></text>
  <g
     id="g4212"
     transform="translate(9731.0409,6809.5683)">
    <g
       transform="translate(-1750.1993,-3563.4683)"
       id="g4214">
      <path
         style="opacity:1;fill:#e8e135;fill-opacity:1;stroke:#000000;stroke-width:3;stroke-linecap:square;stroke-miterlimit:4;stroke-dasharray:none;stroke-opacity:1"
         d="m 1544.9582,313.09717 315.1948,0 m 0,315.19478 -315.1948,0 0,0 0,-315.19478 315.1948,0 0,315.19478 z"
         id="path4217"
         inkscape:connector-curvature="0"
         sodipodi:nodetypes="ccccccccc" />
      <path
         sodipodi:nodetypes="ccccc"
         inkscape:connector-curvature="0"
         id="path4219"
         d="m 1977.7738,195.43656 -117.6208,117.66061 0,315.19478 117.9748,-117.97488 z"
         style="opacity:1;fill:#e8e25d;fill-opacity:1;stroke:#000000;stroke-width:3;stroke-linecap:square;stroke-miterlimit:4;stroke-dasharray:none;stroke-opacity:1" />
      <path
         sodipodi:nodetypes="cccccc"
         inkscape:connector-curvature="0"
         id="path4221"
         d="m 1544.9582,313.09717 315.1948,0 m -315.1948,0 117.6597,-117.65974 315.1559,-8.7e-4 -117.6208,117.66061"
         style="opacity:1;fill:#f3ec5a;fill-opacity:1;stroke:#000000;stroke-width:3;stroke-linecap:square;stroke-miterlimit:4;stroke-dasharray:none;stroke-opacity:1" />
    </g>
    <ellipse
       style="opacity:1;fill:#ffffff;fill-opacity:1;stroke:#000000;stroke-width:2.02557135;stroke-linecap:square;stroke-miterlimit:4;stroke-dasharray:none;stroke-opacity:1"
       id="ellipse4223"
       cx="-3246.3743"
       cy="-87.399635"
       rx="48.570473"
       ry="21.700417"
       transform="matrix(-0.03356838,0.99943642,-0.99943642,-0.03356838,0,0)" />
    <ellipse
       transform="matrix(-0.03356838,0.99943642,-0.99943642,-0.03356838,0,0)"
       ry="21.700417"
       rx="48.570473"
       cy="-51.331341"
       cx="-3069.0635"
       id="ellipse4225"
       style="opacity:1;fill:#ffffff;fill-opacity:1;stroke:#000000;stroke-width:2.02557135;stroke-linecap:square;stroke-miterlimit:4;stroke-dasharray:none;stroke-opacity:1" />
  </g>
  <g
     id="g4227"
     transform="translate(9731.0409,6809.5683)">
    <g
       transform="translate(-1354.9272,-3563.4683)"
       id="g4229">
      <path
         style="opacity:1;fill:#2c820e;fill-opacity:1;stroke:#000000;stroke-width:3;stroke-linecap:square;stroke-miterlimit:4;stroke-dasharray:none;stroke-opacity:1"
         d="m 1544.9582,313.09717 315.1948,0 m 0,315.19478 -315.1948,0 0,0 0,-315.19478 315.1948,0 0,315.19478 z"
         id="path4231"
         inkscape:connector-curvature="0"
         sodipodi:nodetypes="ccccccccc" />
      <path
         sodipodi:nodetypes="ccccc"
         inkscape:connector-curvature="0"
         id="path4233"
         d="m 1977.7738,195.43656 -117.6208,117.66061 0,315.19478 117.9748,-117.97488 z"
         style="opacity:1;fill:#39a812;fill-opacity:1;stroke:#000000;stroke-width:3;stroke-linecap:square;stroke-miterlimit:4;stroke-dasharray:none;stroke-opacity:1" />
      <path
         sodipodi:nodetypes="cccccc"
         inkscape:connector-curvature="0"
         id="path4235"
         d="m 1544.9582,313.09717 315.1948,0 m -315.1948,0 117.6597,-117.65974 315.1559,-8.7e-4 -117.6208,117.66061"
         style="opacity:1;fill:#4bdc18;fill-opacity:1;stroke:#000000;stroke-width:3;stroke-linecap:square;stroke-miterlimit:4;stroke-dasharray:none;stroke-opacity:1" />
    </g>
    <ellipse
       transform="matrix(0.99380437,-0.11114349,0.11114349,0.99380437,0,0)"
       ry="21.700417"
       rx="48.570473"
       cy="-3246.1553"
       cx="769.88483"
       id="ellipse4237"
       style="opacity:1;fill:#ffffff;fill-opacity:1;stroke:#000000;stroke-width:2.02557135;stroke-linecap:square;stroke-miterlimit:4;stroke-dasharray:none;stroke-opacity:1" />
  </g>
  <path
     sodipodi:nodetypes="cscsc"
     inkscape:connector-curvature="0"
     id="path4239"
     d="m 9468.6978,2936.8399 c -71.885,0 -173.1216,180.8524 -173.1216,370.0984 0,192.211 -10.5327,370.0983 -146.8784,370.0983 135.8666,0 146.8784,181.0209 146.8784,370.1248 0,178.1109 -7.4857,370.0721 173.1216,370.0721"
     style="fill:none;fill-rule:evenodd;stroke:#000000;stroke-width:2.79624414;stroke-linecap:butt;stroke-linejoin:miter;stroke-miterlimit:4;stroke-dasharray:none;stroke-opacity:1" />
  <g
     id="g4253"
     transform="translate(9731.0409,6809.5683)">
    <g
       transform="translate(-1750.1993,-3982.0755)"
       id="g4255">
      <path
         style="opacity:1;fill:#203ce7;fill-opacity:1;stroke:#000000;stroke-width:3;stroke-linecap:square;stroke-miterlimit:4;stroke-dasharray:none;stroke-opacity:1"
         d="m 1544.9582,313.09717 315.1948,0 m 0,315.19478 -315.1948,0 0,0 0,-315.19478 315.1948,0 0,315.19478 z"
         id="path4257"
         inkscape:connector-curvature="0"
         sodipodi:nodetypes="ccccccccc" />
      <path
         sodipodi:nodetypes="ccccc"
         inkscape:connector-curvature="0"
         id="path4259"
         d="m 1977.7738,195.43656 -117.6208,117.66061 0,315.19478 117.9748,-117.97488 z"
         style="opacity:1;fill:#475feb;fill-opacity:1;stroke:#000000;stroke-width:3;stroke-linecap:square;stroke-miterlimit:4;stroke-dasharray:none;stroke-opacity:1" />
      <path
         sodipodi:nodetypes="cccccc"
         inkscape:connector-curvature="0"
         id="path4261"
         d="m 1544.9582,313.09717 315.1948,0 m -315.1948,0 117.6597,-117.65974 315.1559,-8.7e-4 -117.6208,117.66061"
         style="opacity:1;fill:#7c8df1;fill-opacity:1;stroke:#000000;stroke-width:3;stroke-linecap:square;stroke-miterlimit:4;stroke-dasharray:none;stroke-opacity:1" />
    </g>
    <ellipse
       style="opacity:1;fill:#ffffff;fill-opacity:1;stroke:#000000;stroke-width:2.02557135;stroke-linecap:square;stroke-miterlimit:4;stroke-dasharray:none;stroke-opacity:1"
       id="ellipse4263"
       cx="-3561.3906"
       cy="-52.805553"
       rx="48.570473"
       ry="21.700417"
       transform="matrix(-0.03356838,0.99943642,-0.99943642,-0.03356838,0,0)" />
  </g>
  <g
     transform="translate(8376.1137,2827.4928)"
     id="g4265">
    <path
       style="opacity:1;fill:#0e7782;fill-opacity:1;stroke:#000000;stroke-width:3;stroke-linecap:square;stroke-miterlimit:4;stroke-dasharray:none;stroke-opacity:1"
       d="m 1544.9582,313.09717 315.1948,0 m 0,315.19478 -315.1948,0 0,0 0,-315.19478 315.1948,0 0,315.19478 z"
       id="path4268"
       inkscape:connector-curvature="0"
       sodipodi:nodetypes="ccccccccc" />
    <path
       sodipodi:nodetypes="ccccc"
       inkscape:connector-curvature="0"
       id="path4270"
       d="m 1977.7738,195.43656 -117.6208,117.66061 0,315.19478 117.9748,-117.97488 z"
       style="opacity:1;fill:#1298a8;fill-opacity:1;stroke:#000000;stroke-width:3;stroke-linecap:square;stroke-miterlimit:4;stroke-dasharray:none;stroke-opacity:1" />
    <path
       sodipodi:nodetypes="cccccc"
       inkscape:connector-curvature="0"
       id="path4272"
       d="m 1544.9582,313.09717 315.1948,0 m -315.1948,0 117.6597,-117.65974 315.1559,-8.7e-4 -117.6208,117.66061"
       style="opacity:1;fill:#18c7dc;fill-opacity:1;stroke:#000000;stroke-width:3;stroke-linecap:square;stroke-miterlimit:4;stroke-dasharray:none;stroke-opacity:1" />
  </g>
  <g
     transform="translate(1635.0409,8737.5683)"
     id="g4286">
    <g
       id="g4288"
       transform="translate(-1354.9272,-3563.4683)">
      <path
         sodipodi:nodetypes="ccccccccc"
         inkscape:connector-curvature="0"
         id="path4290"
         d="m 1544.9582,313.09717 315.1948,0 m 0,315.19478 -315.1948,0 0,0 0,-315.19478 315.1948,0 0,315.19478 z"
         style="opacity:1;fill:#2c820e;fill-opacity:1;stroke:#000000;stroke-width:3;stroke-linecap:square;stroke-miterlimit:4;stroke-dasharray:none;stroke-opacity:1" />
      <path
         style="opacity:1;fill:#39a812;fill-opacity:1;stroke:#000000;stroke-width:3;stroke-linecap:square;stroke-miterlimit:4;stroke-dasharray:none;stroke-opacity:1"
         d="m 1977.7738,195.43656 -117.6208,117.66061 0,315.19478 117.9748,-117.97488 z"
         id="path4295"
         inkscape:connector-curvature="0"
         sodipodi:nodetypes="ccccc" />
      <path
         style="opacity:1;fill:#4bdc18;fill-opacity:1;stroke:#000000;stroke-width:3;stroke-linecap:square;stroke-miterlimit:4;stroke-dasharray:none;stroke-opacity:1"
         d="m 1544.9582,313.09717 315.1948,0 m -315.1948,0 117.6597,-117.65974 315.1559,-8.7e-4 -117.6208,117.66061"
         id="path4297"
         inkscape:connector-curvature="0"
         sodipodi:nodetypes="cccccc" />
    </g>
    <ellipse
       style="opacity:1;fill:#ffffff;fill-opacity:1;stroke:#000000;stroke-width:2.02557135;stroke-linecap:square;stroke-miterlimit:4;stroke-dasharray:none;stroke-opacity:1"
       id="ellipse4299"
       cx="769.88483"
       cy="-3246.1553"
       rx="48.570473"
       ry="21.700417"
       transform="matrix(0.99380437,-0.11114349,0.11114349,0.99380437,0,0)" />
  </g>
  <g
     id="g4301"
     transform="translate(1635.0409,9297.5683)">
    <g
       transform="translate(-1354.9272,-3563.4683)"
       id="g4303">
      <path
         style="opacity:1;fill:#2c820e;fill-opacity:1;stroke:#000000;stroke-width:3;stroke-linecap:square;stroke-miterlimit:4;stroke-dasharray:none;stroke-opacity:1"
         d="m 1544.9582,313.09717 315.1948,0 m 0,315.19478 -315.1948,0 0,0 0,-315.19478 315.1948,0 0,315.19478 z"
         id="path4305"
         inkscape:connector-curvature="0"
         sodipodi:nodetypes="ccccccccc" />
      <path
         sodipodi:nodetypes="ccccc"
         inkscape:connector-curvature="0"
         id="path4307"
         d="m 1977.7738,195.43656 -117.6208,117.66061 0,315.19478 117.9748,-117.97488 z"
         style="opacity:1;fill:#39a812;fill-opacity:1;stroke:#000000;stroke-width:3;stroke-linecap:square;stroke-miterlimit:4;stroke-dasharray:none;stroke-opacity:1" />
      <path
         sodipodi:nodetypes="cccccc"
         inkscape:connector-curvature="0"
         id="path4309"
         d="m 1544.9582,313.09717 315.1948,0 m -315.1948,0 117.6597,-117.65974 315.1559,-8.7e-4 -117.6208,117.66061"
         style="opacity:1;fill:#4bdc18;fill-opacity:1;stroke:#000000;stroke-width:3;stroke-linecap:square;stroke-miterlimit:4;stroke-dasharray:none;stroke-opacity:1" />
    </g>
    <ellipse
       transform="matrix(0.99380437,-0.11114349,0.11114349,0.99380437,0,0)"
       ry="21.700417"
       rx="48.570473"
       cy="-3246.1553"
       cx="769.88483"
       id="ellipse4311"
       style="opacity:1;fill:#ffffff;fill-opacity:1;stroke:#000000;stroke-width:2.02557135;stroke-linecap:square;stroke-miterlimit:4;stroke-dasharray:none;stroke-opacity:1" />
  </g>
</svg>
