<?xml version="1.0" ?><!DOCTYPE svg  PUBLIC '-//W3C//DTD SVG 1.0//EN'  'http://www.w3.org/TR/2001/REC-SVG-20010904/DTD/svg10.dtd'><svg enable-background="new 0 0 200 200" height="200px" id="Layer_1" version="1.0" viewBox="0 0 200 200" width="200px" xml:space="preserve" xmlns="http://www.w3.org/2000/svg" xmlns:xlink="http://www.w3.org/1999/xlink"><g id="New_Symbol"/><g id="New_Symbol_1_"/><g id="New_Symbol_1"/><g id="New_Symbol_9_2_"/><g id="New_Symbol_7"/><g id="New_Symbol_9_1_"/><g id="New_Symbol_9"/><g id="Nuevo_símbolo"/><g id="New_Symbol_10"/><g id="New_Symbol_12"/><g id="New_Symbol_14"/><g id="New_Symbol_15"/><g id="New_Symbol_16"/><g id="New_Symbol_17_1_"/><g id="New_Symbol_18"/><g id="New_Symbol_19"/><g id="New_Symbol_17"/><g><g><g><path d="M24.5,139.3h152.9V39.5H24.5c-1.6,0-1.8,0.6-1.8,1.2v96.5C22.7,138.1,23.5,139.3,24.5,139.3z M25.2,42h149.6v2.8H25.2V42     z M25.2,47.3h149.6v89.5H25.2V47.3z"/></g><g><circle cx="100" cy="151.5" r="2.6"/></g><g><path d="M184.2,30.6H15.8c-1.5,0-2,1.4-2,2.5v123.1c0,1.3,0.6,2.6,2,2.6h59.9v8.1H59.8v2.5h80.4v-2.5h-15.9v-8.1h59.9     c1.4,0,2-1.3,2-2.6V33.1C186.2,32,185.7,30.6,184.2,30.6z M121.7,166.8H78.3v-8.1h43.5V166.8z M183.7,156.2H16.3v-9.8h167.3     V156.2z M183.7,143.8H16.3V33.2h167.3V143.8z"/></g></g><g><g><g><path d="M116.3,121.4c-13,0-24.3-8.9-27.4-21.5c-1.8-7.3-0.6-14.9,3.3-21.4s10.1-11,17.4-12.8c2.2-0.5,4.5-0.8,6.8-0.8      c13,0,24.3,8.9,27.4,21.5c1.8,7.3,0.6,14.9-3.3,21.4s-10.1,11-17.4,12.8C120.8,121.1,118.6,121.4,116.3,121.4z M116.3,67.4      c-2.1,0-4.1,0.3-6.2,0.7c-6.7,1.6-12.3,5.8-15.9,11.7c-3.6,5.9-4.6,12.8-3,19.5c2.8,11.6,13.1,19.6,25,19.6      c2.1,0,4.1-0.3,6.2-0.7c6.7-1.6,12.3-5.8,15.9-11.7s4.6-12.8,3-19.5C138.5,75.4,128.2,67.4,116.3,67.4z"/></g></g><g><g><path d="M116.3,116.7c-10.9,0-20.2-7.4-22.8-17.9c-3.1-12.6,4.6-25.4,17.2-28.5c1.8-0.5,3.7-0.7,5.6-0.7      c10.9,0,20.2,7.4,22.8,17.9c3.1,12.6-4.6,25.4-17.2,28.5C120.1,116.4,118.2,116.7,116.3,116.7z M116.3,72.1      c-1.7,0-3.4,0.2-5,0.6c-11.3,2.8-18.2,14.2-15.4,25.4c2.3,9.4,10.7,16,20.4,16c1.7,0,3.4-0.2,5-0.6      c11.3-2.8,18.2-14.2,15.4-25.4C134.4,78.7,126,72.1,116.3,72.1z"/></g></g><g><g><path d="M116.4,110.5c-5,0-10-2-13.8-5.9l1.8-1.7c6.3,6.6,16.8,6.8,23.4,0.5l1.7,1.8C125.9,108.8,121.1,110.5,116.4,110.5z"/></g></g><g><g><path d="M141.4,103.2c-0.9,2.2-2,4.3-3.4,6.1l29.7,18l3.6-6L141.4,103.2z"/></g><g><path d="M168.1,129l-32-19.4l0.8-1.1c1.3-1.8,2.4-3.8,3.3-5.9l0.5-1.4l32.2,19.5L168.1,129z M139.7,108.9l27.5,16.7l2.3-3.9      L142,105C141.3,106.4,140.6,107.7,139.7,108.9z"/></g></g></g><g><g><g><path d="M117.9,89.1c-0.5-2.5-3-4.2-5.5-3.7c-0.7,0.1-1.3,0.4-1.8,0.8L100,78.6c-0.7,0.5-1.3,1.1-1.9,1.7l10.9,7.8      c-0.4,0.9-0.5,1.8-0.3,2.8c0.5,2.5,3,4.2,5.5,3.7C116.7,94.2,118.4,91.7,117.9,89.1z M113.8,92.7c-1.5,0.3-2.9-0.7-3.2-2.1      c-0.3-1.5,0.7-2.9,2.1-3.2c1.5-0.3,2.9,0.7,3.2,2.1C116.2,91,115.3,92.4,113.8,92.7z"/></g></g><g><g><path d="M80.5,62c-0.5-2.5-3-4.2-5.5-3.7s-4.2,3-3.7,5.5c0.1,0.7,0.5,1.4,0.9,2L57,84.8c-0.7-0.2-1.5-0.3-2.3-0.2      c-0.8,0.2-1.5,0.5-2.1,1l-13.7-5.8c0.1-0.5,0.1-1,0-1.6c-0.5-2.5-3-4.2-5.5-3.7c-2.5,0.5-4.2,3-3.7,5.5c0.2,0.9,0.6,1.7,1.2,2.3      l-7.3,10.7v4.4l9.4-13.8c0.7,0.2,1.4,0.3,2.2,0.1c1.1-0.2,2.1-0.8,2.7-1.7l13.3,5.6c-0.3,0.8-0.3,1.6-0.2,2.4      c0.5,2.5,3,4.2,5.5,3.7s4.2-3,3.7-5.5c-0.2-0.8-0.6-1.6-1.1-2.2l15.1-18.9c0.8,0.3,1.7,0.4,2.6,0.2c0.8-0.2,1.5-0.5,2.1-1.1      l15.4,11.1c0.6-0.6,1.2-1.2,1.8-1.8L80.3,64.3C80.5,63.6,80.6,62.8,80.5,62z M35.9,81.3c-0.3,0.3-0.7,0.5-1.2,0.6      c-0.2,0-0.4,0.1-0.5,0.1c-0.2,0-0.4,0-0.6-0.1c-0.1,0-0.1,0-0.2-0.1c-0.1,0-0.3-0.1-0.4-0.2c-0.1,0-0.1-0.1-0.2-0.1      c-0.1-0.1-0.2-0.2-0.3-0.2c0,0-0.1-0.1-0.1-0.1c-0.1-0.1-0.3-0.3-0.4-0.4c-0.2-0.3-0.3-0.6-0.4-1c-0.3-1.5,0.7-2.9,2.1-3.2      c1.5-0.3,2.9,0.7,3.2,2.1c0,0.1,0,0.2,0,0.3C36.9,79.9,36.6,80.7,35.9,81.3z M56.1,91.9c-1.5,0.3-2.9-0.7-3.2-2.1      c-0.1-0.4-0.1-0.8,0.1-1.2c0.1-0.2,0.2-0.4,0.3-0.6v0c0.2-0.4,0.6-0.7,1-1c0,0,0,0,0,0c0.2-0.1,0.4-0.2,0.7-0.3      c0.1,0,0.1,0,0.1,0c0.2,0,0.4-0.1,0.6,0c0.2,0,0.4,0,0.6,0.1c0.1,0,0.1,0,0.1,0c0.1,0,0.3,0.1,0.4,0.2c0,0,0.1,0.1,0.1,0.1      c0.1,0.1,0.3,0.2,0.4,0.3c0,0,0.1,0,0.1,0.1c0.2,0.1,0.3,0.3,0.4,0.5c0.2,0.3,0.3,0.6,0.4,1C58.5,90.2,57.5,91.6,56.1,91.9z       M78.5,63.1L78.5,63.1c-0.1,0.9-0.6,1.7-1.3,2.1c-0.3,0.1-0.5,0.3-0.8,0.3c-0.3,0.1-0.6,0.1-0.9,0c-0.9-0.1-1.6-0.7-2-1.5      c-0.1-0.2-0.2-0.4-0.3-0.7c-0.3-1.5,0.7-2.9,2.1-3.2c1.5-0.3,2.9,0.7,3.2,2.1C78.5,62.6,78.5,62.8,78.5,63.1z"/></g></g></g></g></svg>