<?xml version="1.0" ?><!DOCTYPE svg  PUBLIC '-//W3C//DTD SVG 1.0//EN'  'http://www.w3.org/TR/2001/REC-SVG-20010904/DTD/svg10.dtd'><svg enable-background="new 0 0 200 200" height="200px" id="Layer_1" version="1.0" viewBox="0 0 200 200" width="200px" xml:space="preserve" xmlns="http://www.w3.org/2000/svg" xmlns:xlink="http://www.w3.org/1999/xlink"><g id="New_Symbol"/><g id="New_Symbol_1_"/><g id="New_Symbol_1"/><g id="New_Symbol_9_2_"/><g id="New_Symbol_7"/><g id="New_Symbol_9_1_"/><g id="New_Symbol_9"/><g id="Nuevo_símbolo"/><g id="New_Symbol_10"/><g id="New_Symbol_12"/><g id="New_Symbol_14"/><g id="New_Symbol_15"/><g id="New_Symbol_16"/><g id="New_Symbol_17_1_"/><g id="New_Symbol_18"/><g id="New_Symbol_19"/><g id="New_Symbol_17"/><g><g><g><path d="M100,105.3L66.9,84.6L100,63.9l33.1,20.7L100,105.3z M71.6,84.6l28.4,17.7l28.4-17.7L100,66.9L71.6,84.6z     " fill="#1D1D1B"/></g></g><g><g><path d="M183.1,135.2h-63.9v-22.3h63.9V135.2z M121.7,132.7h58.9v-17.3h-58.9V132.7z" fill="#1D1D1B"/></g></g><g><g><path d="M80.8,165.9H16.9v-22.3h63.9V165.9z M19.4,163.4h58.9v-17.3H19.4V163.4z" fill="#1D1D1B"/></g></g><g><g><polygon fill="#1D1D1B" points="50.1,143.6 47.6,143.6 47.6,83.6 69.3,83.6 69.3,86.1 50.1,86.1    "/></g></g><g><g><polygon fill="#1D1D1B" points="152.4,113.5 149.9,113.5 149.9,86.1 130.7,86.1 130.7,83.6 152.4,83.6    "/></g></g><g><g><rect fill="#1D1D1B" height="22.1" width="2.5" x="98.8" y="43.3"/></g></g><g><g><rect fill="#1D1D1B" height="23.1" width="2.5" x="149.9" y="133.9"/></g></g><g><g><circle cx="100.5" cy="38" fill="#1D1D1B" r="7"/></g></g><g><g><circle cx="151.5" cy="162" fill="#1D1D1B" r="7"/></g></g></g></svg>