<?xml version="1.0" ?><!DOCTYPE svg  PUBLIC '-//W3C//DTD SVG 1.0//EN'  'http://www.w3.org/TR/2001/REC-SVG-20010904/DTD/svg10.dtd'><svg enable-background="new 0 0 200 200" height="200px" id="Layer_1" version="1.0" viewBox="0 0 200 200" width="200px" xml:space="preserve" xmlns="http://www.w3.org/2000/svg" xmlns:xlink="http://www.w3.org/1999/xlink"><g id="New_Symbol"/><g id="New_Symbol_1_"/><g id="New_Symbol_1"/><g id="New_Symbol_9_2_"/><g id="New_Symbol_7"/><g id="New_Symbol_9_1_"/><g id="New_Symbol_9"/><g id="Nuevo_símbolo"/><g id="New_Symbol_10"/><g id="New_Symbol_12"/><g id="New_Symbol_14"/><g id="New_Symbol_15"/><g id="New_Symbol_16"/><g id="New_Symbol_17_1_"/><g id="New_Symbol_18"/><g id="New_Symbol_19"/><g id="New_Symbol_17"/><g><g><path d="M191,15.1H9v113.6h103.4l0,6.5l11.3,3.7l1.4,2l-13.8,35.2l13.9-6.1l5.8,14.8l9.4-24l3.9,23.4l8.7-13.1l12.3,9.2l-6.5-39.3    l1.5-2l11.3-3.7l0-6.5H191V15.1z M126.1,167.9l-11.9,5.2l12-30.6l4.4,6.1l11.3-3.7l2.6,0.9l-13.6,34.6L126.1,167.9z M162.9,176.6    l-10.5-7.8l-7.3,11.1l-3.6-22l4.6-11.6l7.1,2.3l4.2-5.8L162.9,176.6z M159.1,137.6l-6.6,9.1l-10.7-3.5l-10.7,3.5l-6.6-9.1    l-10.7-3.5l0-11.2l-6.6-9.1l6.6-9.1l0-11.2l10.7-3.5l6.6-9.1l10.7,3.5l10.7-3.5l6.6,9.1l10.7,3.5l0,11.2l6.6,9.1l-6.6,9.1l0,11.2    L159.1,137.6z M160.1,88.7l-7-9.6l-11.3,3.7l-11.3-3.7l-7,9.6l-11.3,3.7l0,11.9l-7,9.6l3.6,4.9H18.1V25.2h163.7v93.6h-7l3.6-4.9    l-7-9.6l0-11.9L160.1,88.7z M189.4,127.2h-18l0-3.7l2.8-3.8v0.8h9.2V23.5h-167v96.8h93.6l2.2,3.1l0,3.7H10.6V16.8h178.9V127.2z"/></g><g><path d="M141.9,93.4c-7.2,0-13.7,3.6-17.4,9.7l1.4,0.8c3.5-5.6,9.5-9,16.1-9c6.6,0,12.6,3.4,16.1,9l1.4-0.8    C155.5,97,149,93.4,141.9,93.4z"/></g><g><path d="M141.9,132.7c-6.6,0-12.6-3.4-16.1-9l-1.4,0.8c3.8,6.1,10.3,9.8,17.4,9.8c7.2,0,13.7-3.6,17.4-9.7l-1.4-0.8    C154.5,129.3,148.5,132.7,141.9,132.7z"/></g><g><path d="M58.1,94.1C58.1,94.1,58.1,94.1,58.1,94.1C58.1,94.1,58.1,94.1,58.1,94.1C58.1,94.1,58.1,94.1,58.1,94.1z"/></g><g><path d="M72.5,97.2c-2.4,0.3-4.1,2.2-5.7,3.7c-0.5,0.5-1,1-1.4,1.5c0.3-0.6,0.6-1.2,0.9-1.8c0.3-0.8,0.5-1.4,0.5-2.1    c0-0.6-0.2-1.3-0.7-1.8c-0.5-0.5-1.1-0.6-1.7-0.6c-1.5,0.1-2.8,0.8-3.9,1.7c-1.1,1-2.2,2.1-3.1,3c-0.5,0.4-0.9,0.8-1.3,1    c-0.2,0.1-0.3,0.2-0.4,0.2c0,0,0,0-0.1,0c-0.1,0-0.2-0.1-0.3-0.1c0.4-0.7,1.3-1.8,2.5-3.5c0.4-0.5,0.8-1,1.1-1.3    c0.2-0.3,0.4-0.5,0.5-0.6c0.1-0.1,0.1-0.1,0.2-0.2c0,0,0-0.1,0.1-0.1c0,0,0-0.1,0.1-0.1c0.1-0.2,0.1-0.3,0.1-0.4c0,0,0,0,0-0.1    c0,0,0,0,0,0c0-0.1,0-0.1,0-0.1c0-0.1,0-0.3-0.1-0.4c0-0.1-0.1-0.3-0.2-0.4c0-0.1-0.1-0.1-0.2-0.2c-0.1-0.1-0.1-0.1-0.2-0.2    c-0.1,0-0.1-0.1-0.2-0.1c0,0,0,0,0,0c0,0,0,0,0,0c0,0,0,0,0,0c0,0,0,0,0,0c0,0-0.1,0-0.2-0.1c0,0,0,0,0.1,0c0,0-0.1,0-0.1,0    c0,0,0,0,0,0c-0.1,0-0.1,0-0.2,0c-0.1,0-0.2,0-0.2,0c0,0,0,0,0,0c-0.1,0-0.2,0-0.4,0.1c0,0,0,0-0.1,0c0,0,0,0,0,0    c-0.1,0-0.2,0.1-0.2,0.1c0,0-0.1,0-0.1,0.1c0,0,0,0,0,0c0,0,0,0,0,0c0,0,0,0-0.1,0.1c-0.1,0.1-0.1,0.1-0.2,0.2    c-0.2,0.2-0.6,0.7-1.3,1.7c-0.1,0.2-0.2,0.3-0.4,0.5c-0.7,0.8-1.5,1.7-2.3,2.6c-1,1-2,2-2.9,2.7c-0.9,0.7-1.7,1-1.9,1h0    c-0.1,0-0.2,0-0.3-0.1c0-0.2,0.2-0.6,0.4-1.2c1.3-1.6,2.7-3.7,3.7-5.5c0.6-1,1.1-1.9,1.4-2.6c0.2-0.4,0.3-0.7,0.4-0.9    c0.1-0.1,0.1-0.2,0.1-0.3c0-0.1,0.1-0.1,0.1-0.6c0-0.2,0-0.4-0.2-0.7c-0.1-0.3-0.7-0.7-1.2-0.7c-0.5,0-0.7,0.2-0.8,0.3    c-0.4,0.3-0.3,0.3-0.4,0.4c-0.2,0.3-0.5,0.7-0.9,1.5c-1.3,2.2-2.6,4.2-3.6,5.9c-0.4,0.7-0.8,1.3-1.1,1.9c-0.3,0.3-0.6,0.7-0.8,0.9    c-0.3,0.2-0.5,0.4-0.7,0.5c-0.1,0-0.1,0.1-0.2,0.1c0,0,0,0,0,0c0,0,0,0,0,0c0-0.1,0-0.2,0-0.3c0-0.5,0.2-1.3,0.5-2.4    c0.6-0.9,1.2-1.7,1.7-2.6c1.7-2.7,3-5.3,4-7.4c0.5-1,0.9-1.9,1.1-2.7c0.3-0.8,0.4-1.2,0.5-1.9c0-0.2,0-0.3-0.1-0.7    c-0.1-0.3-0.7-0.9-1.3-0.8c-0.9,0.1-1,0.4-1.2,0.6c-0.4,0.5-0.8,1.1-1.5,2.3c-1.9,3.5-3.5,6.6-4.6,9.2c-0.4,1-0.8,1.9-1.1,2.7    c-0.3,0.4-0.6,0.8-0.9,1.2c-2.8,3.6-6,6.7-9.1,7.7c-0.7,0.2-1.1,1-0.9,1.7c0.2,0.6,0.7,0.9,1.3,0.9c0.1,0,0.3,0,0.4-0.1    c3.2-1.1,6.1-3.5,8.6-6.4c0.1,0.2,0.2,0.5,0.4,0.7c0.5,0.7,1.4,0.9,2.1,0.9c0.4,0,0.8-0.1,1.1-0.2c0.1,0.2,0.3,0.4,0.5,0.6    c0.4,0.4,0.9,0.6,1.4,0.7h-4.3c-0.7,0-1.3,0.6-1.3,1.3c0,0.7,0.6,1.3,1.3,1.3h26.8c0.7,0,1.3-0.6,1.3-1.3c0-0.7-0.6-1.3-1.3-1.3    h-4.5c0.2-0.2,0.4-0.3,0.7-0.5c1.2-1,2.3-2.3,3.4-3.3c1.1-1.1,2.2-1.8,2.8-1.8c0.7-0.1,1.3-0.7,1.2-1.5    C73.9,97.7,73.2,97.1,72.5,97.2z M63.8,99.4c-0.3,0.7-0.8,1.6-1.2,2.4c-0.4,0.8-0.9,1.5-0.9,2.5c0,0.3,0.1,0.8,0.4,1.1H49.6v0    c1-0.3,1.8-0.8,2.7-1.5c0.1-0.1,0.2-0.2,0.3-0.2c0,0,0,0,0.1,0.1c1,0.8,1.6,0.6,2.3,0.9c0.2,0.1,0.4,0.1,0.6,0.1    c1.6-0.1,2.4-1,3.6-2c1.1-1,2.2-2.1,3.1-3c0.4-0.4,1.2-0.8,1.6-1C63.9,99,63.9,99.2,63.8,99.4z"/></g><g><polygon points="43.1,45.6 35.3,41.7 35.3,41.7 43.1,37.8 43.1,36.4 33.8,41.2 33.8,42.2 43.1,47   "/></g><g><polygon points="55.5,33.3 54.2,33.3 48.6,47.8 49.9,47.8   "/></g><g><polygon points="70.3,41.1 61,36.4 61,37.8 68.9,41.7 68.9,41.7 61,45.6 61,47 70.3,42.3   "/></g><g><rect height="3" width="8.5" x="98.3" y="64.5"/></g><g><rect height="3" width="8.5" x="80.8" y="59.6"/></g><g><rect height="3" width="8.5" x="37.3" y="59.6"/></g><g><rect height="3" width="8.5" x="37.3" y="64.5"/></g><g><rect height="3" width="14.2" x="37.3" y="54.5"/></g><g><polygon points="47.9,62.6 78.8,62.6 78.8,62.6 78.8,59.6 47.9,59.6   "/></g><g><rect height="3" width="48.4" x="47.9" y="64.5"/></g><g><rect height="3" width="8.5" x="37.3" y="69.6"/></g><g><rect height="3" width="8.5" x="117.7" y="69.6"/></g><g><rect height="3" width="67.7" x="47.9" y="69.6"/></g><g><rect height="3" width="67.8" x="37.3" y="74.6"/></g><g><polygon points="35.3,57.5 35.3,57.5 35.3,54.5 35.3,54.5 32.7,54.5 32.7,54.5 32.7,57.5 32.7,57.5   "/></g><g><polygon points="35.3,62.5 35.3,62.5 35.3,59.5 35.3,59.5 32.7,59.5 32.7,59.5 32.7,62.5 32.7,62.5   "/></g><g><polygon points="35.3,67.5 35.3,67.5 35.3,64.5 35.3,64.5 32.7,64.5 32.7,64.5 32.7,67.5 32.7,67.5   "/></g><g><polygon points="35.3,72.6 35.3,72.6 35.3,69.6 35.3,69.6 32.7,69.6 32.7,69.6 32.7,72.6 32.7,72.6   "/></g><g><polygon points="35.3,77.6 35.3,77.6 35.3,74.6 35.3,74.6 32.7,74.6 32.7,74.6 32.7,77.6 32.7,77.6   "/></g></g></svg>