<?xml version="1.0" encoding="UTF-8" standalone="no"?>
<svg
   xmlns:dc="http://purl.org/dc/elements/1.1/"
   xmlns:cc="http://creativecommons.org/ns#"
   xmlns:rdf="http://www.w3.org/1999/02/22-rdf-syntax-ns#"
   xmlns:svg="http://www.w3.org/2000/svg"
   xmlns="http://www.w3.org/2000/svg"
   xmlns:sodipodi="http://sodipodi.sourceforge.net/DTD/sodipodi-0.dtd"
   xmlns:inkscape="http://www.inkscape.org/namespaces/inkscape"
   enable-background="new 0 0 200 200"
   height="200px"
   id="Layer_1"
   version="1.0"
   viewBox="0 0 200 200"
   width="200px"
   xml:space="preserve"
   inkscape:version="0.91 r13725"
   sodipodi:docname="spread_knowlegde.svg"><metadata
     id="metadata36"><rdf:RDF><cc:Work
         rdf:about=""><dc:format>image/svg+xml</dc:format><dc:type
           rdf:resource="http://purl.org/dc/dcmitype/StillImage" /></cc:Work></rdf:RDF></metadata><defs
     id="defs34" /><sodipodi:namedview
     pagecolor="#ffffff"
     bordercolor="#666666"
     borderopacity="1"
     objecttolerance="10"
     gridtolerance="10"
     guidetolerance="10"
     inkscape:pageopacity="0"
     inkscape:pageshadow="2"
     inkscape:window-width="1662"
     inkscape:window-height="980"
     id="namedview32"
     showgrid="false"
     inkscape:zoom="2.36"
     inkscape:cx="111.72268"
     inkscape:cy="91.489302"
     inkscape:window-x="0"
     inkscape:window-y="0"
     inkscape:window-maximized="0"
     inkscape:current-layer="Layer_1" /><g
     id="New_Symbol" /><g
     id="New_Symbol_1_" /><g
     id="New_Symbol_1" /><g
     id="New_Symbol_9_2_" /><g
     id="New_Symbol_7" /><g
     id="New_Symbol_9_1_" /><g
     id="New_Symbol_9" /><g
     id="Nuevo_símbolo" /><g
     id="New_Symbol_10" /><g
     id="New_Symbol_12" /><g
     id="New_Symbol_14" /><g
     id="New_Symbol_15" /><g
     id="New_Symbol_16" /><g
     id="New_Symbol_17_1_" /><g
     id="New_Symbol_18" /><g
     id="New_Symbol_19" /><g
     id="New_Symbol_17" /><path
     inkscape:connector-curvature="0"
     id="path22"
     d="m 33,87.9 c 1.1,4 7.5,24.3 25,24.3 17.5,0 24.3,-20.6 25.5,-24.7 4.5,-0.4 8.3,-3.6 9.8,-8.2 1.3,-4.4 0.1,-8.8 -3.1,-11.4 0.1,-3 0,-16.8 -8.8,-26.1 -5.2,-5.6 -12.5,-8.4 -21.7,-8.4 -10.3,0 -18.3,3 -23.8,9 -7.8,8.4 -8.2,19.9 -8.1,23.3 -2.3,0.6 -3.8,3.1 -4,6.8 C 23.2,78 26,86.6 33,87.9 Z m 4.2,-44.2 c 5.1,-5.5 12.6,-8.3 22.3,-8.3 8.6,0 15.4,2.6 20.2,7.7 7.4,7.8 8.2,19.6 8.2,23.7 -1.9,-0.9 -5.5,-2.9 -9.8,-6.1 -4.3,-3.3 -8.6,-4.3 -10.5,-2.4 -0.7,0.8 -1.5,2.5 0.6,5.9 -3,-1 -7.8,-3 -10.8,-4.2 C 54.9,59 53,58.2 52,57.9 40.8,53.9 32.3,61 29.6,64 c 0,-3.8 0.8,-13 7.6,-20.3 z M 25.5,71.8 c 0.1,-2.5 1,-4.8 3.1,-4.8 l 0.4,0 c 0.4,0 1,-0.1 1.3,-0.5 0.4,-0.5 8.9,-11.4 21.2,-7.2 0.9,0.3 2.9,1.3 5.2,2.3 7.1,2.9 12.2,5.1 13.9,5.1 0,0 0.1,0 0.1,0 l 2,-0.1 -1.2,-1.6 c -2.4,-2.9 -2.9,-4.8 -2.3,-5.4 0.8,-0.8 4,-0.3 7.8,2.6 6,4.5 10.6,6.6 11.5,7 2.8,2 3.9,5.7 2.8,9.5 -0.9,3.1 -3.8,6.8 -8.6,6.9 l -0.8,0 -0.2,0.8 C 81.6,86.6 75.8,110.3 58,110.3 40.4,110.3 34.9,87.1 34.8,86.9 L 34.6,86.2 33.9,85.7 C 28,85 25.2,77 25.5,71.8 Z" /><path
     inkscape:connector-curvature="0"
     id="path24"
     d="m 189.6,132.6 c 4.9,-15 -5.6,-24 -8.1,-25.8 0.3,-2.8 0.8,-14.4 -9.7,-23.9 4,-4.2 5.7,-16.3 2.1,-28.1 -2.8,-9.2 -11,-24.6 -33.9,-24.6 -11,0 -19.5,3.4 -25.2,10.1 -10,11.7 -8.2,29.5 -7.7,33.1 -0.9,0.8 -2.9,2.6 -4.6,5.7 -2,3.6 -3.9,9.7 -1.7,18.2 -8.2,6.4 -12,14 -11.2,22.7 -5.7,-2.7 -10.3,-3.9 -10.8,-4 l -0.3,-0.5 -2.1,-3.6 -1.2,-2 -1.8,1.2 c -2.7,2.3 -5.7,4 -8.7,5 l -1.3,0 -9.3,0 -1.3,0 c -3,-1 -6,-2.7 -8.7,-5 l -1.8,-1.4 -1.2,2.1 -2.1,3.6 -0.2,0.3 c -5.2,1.5 -35.3,11.5 -35.3,35.2 0,0.6 0.4,1 1,1 0.6,0 1,-0.4 1,-1 0,-21.9 27.9,-31.5 33.6,-33.2 1.2,2.1 5.9,9.8 10.7,10.5 l 1.7,0.3 0.5,-1.7 0.9,-3 c 0.3,0.7 0.7,1.4 1.2,2 l -3.1,31.1 -0.1,0.7 0.4,0.6 5.7,9 1.7,2.7 1.7,-2.8 5.4,-9 0.3,-0.6 -0.1,-0.7 -2.9,-31.1 c 0.5,-0.6 0.9,-1.3 1.2,-2 l 0.9,3 0.5,1.7 1.7,-0.3 c 4.6,-0.7 9.3,-8.1 10.6,-10.4 1.5,0.4 33.9,9.3 33.9,33.1 0,0.6 0.4,1 1,1 0.6,0 1,-0.4 1,-1 0,-12.8 -8.6,-21.4 -17.3,-27 2.3,-0.7 4.7,-1.3 7,-1.9 5.2,-1.3 10,-2.6 14,-4.9 1,1.8 8.4,14.5 15.4,15.6 l 1.7,0.3 0.5,-1.7 3.6,-12 0.2,-0.6 0.2,0.6 3.6,12 0.5,1.7 1.7,-0.3 c 6.4,-1 13.3,-11.9 15.1,-15 0.1,0 0.2,0.1 0.3,0.1 0.3,0.1 34,8.8 34,33.1 0,0.6 0.4,1 1,1 0.6,0 1,-0.4 1,-1 0.2,-7.3 -2.7,-13.3 -6.8,-18.2 z M 51.9,119.9 50,126.3 c -3.9,-0.6 -8.5,-8.3 -9.3,-9.6 0,-0.1 0,-0.3 0,-0.4 l 2,-3.4 c 2.8,2.4 5.9,3.6 9.3,4.6 -0.1,0.5 -0.1,1.5 -0.1,2 -0.1,0.1 0,0.2 0,0.4 z m 9.3,5.2 3,31.9 -5.4,9 -5.7,-9 3,-31.9 c -1.2,-1.1 -2,-2.9 -2.1,-5 l 0.4,-1.7 0.2,-0.4 8.3,0 0.2,0.4 0.4,1.5 c -0.3,2.1 -1.1,4.1 -2.3,5.2 z m 6.1,1.2 -1.9,-6.4 c 0,-0.1 0,-0.2 0,-0.4 0,-0.5 0,-0.9 -0.1,-1.4 3.3,-1 6.4,-2.8 9.3,-5.2 l 2.1,3.6 c 0,0 -5.2,9.1 -9.4,9.8 z m 66.2,4.4 c -6.3,-1 -14,-14.6 -14,-14.6 l 3.2,-5.4 c 4.4,3.7 9.3,6.5 14.5,8 l -3.7,12 z m 11.5,0 -3.6,-12 c 5.2,-1.5 10.1,-4.2 14.5,-8 l 3.2,5.4 C 159,116 151.3,129.7 145,130.7 Z m 43,0.2 c -9.9,-10.2 -25.1,-14.5 -26.8,-15 l -0.5,-0.9 -3.2,-5.4 -1.2,-2 -1.8,1.5 c -4.3,3.6 -8.9,6.2 -13.7,7.6 l -1.5,0.4 -1.5,-0.4 c -4.8,-1.4 -9.4,-4 -13.7,-7.6 l -1.8,-1.5 -1.2,2 -3.2,5.4 0,0 c -0.2,0 -0.4,0 -0.6,0.1 -3.8,2.3 -8.7,3.6 -13.9,4.9 -2.9,0.7 -5.9,1.5 -8.7,2.5 -1,-0.6 -2,-1.1 -2.9,-1.6 -1.2,-8.8 2.4,-16.1 10.9,-22.5 L 103,98 102.8,97.3 c -4.2,-15.6 5.5,-22.5 5.9,-22.8 l 0.5,-0.4 -0.1,-0.6 c 0,-0.2 -3.1,-20 7.2,-32.1 5.3,-6.2 13.3,-9.4 23.7,-9.4 21.7,0 29.4,14.6 32,23.2 3.5,11.5 1.6,24 -2.3,26.7 l -1.1,0.7 1,0.9 c 11.8,10.1 9.8,23.3 9.8,23.4 l -0.1,0.6 0.5,0.4 c 0.6,0.5 12.3,8.3 8.2,23 z" /><path
     inkscape:connector-curvature="0"
     id="path26"
     d="m 77.5,150.6 0,2.8 0,9.2 c 0,2.4 1.8,2.4 4.3,2.4 l 14.4,0 c 2.4,0 5.4,0.1 5.4,-2.4 l 0,-9.2 0,-2.8 0,-5.6 -24,0 0,5.6 z m 2,-3.6 20,0 0,3 -20,0 0,-3 z m 0,5 20,0 0,10.6 c 0,1.3 -2,0.4 -3.4,0.4 l -14.3,0 c -1.3,0 -2.3,1 -2.3,-0.4 l 0,-10.6 z" /><path
     inkscape:connector-curvature="0"
     id="path28"
     d="m 139.6,94.6 c -6,0 -7.8,3.2 -7.9,3.3 l -0.2,0.4 0.1,0.4 c 0,0.2 1.3,4.4 7.9,4.4 6.5,0 8.5,-4 8.6,-4.2 l 0.3,-0.6 -0.4,-0.5 c 0,-0.1 -2.5,-3.2 -8.4,-3.2 z m 0,6.5 c -4,0 -5.4,-1.7 -5.8,-2.5 0.6,-0.6 2.2,-2 5.8,-2 3.5,0 5.5,1.2 6.4,2 -0.7,0.9 -2.5,2.5 -6.4,2.5 z" /><path
     inkscape:connector-curvature="0"
     id="path30"
     d="m 163.7,72.8 -0.1,-0.8 -0.9,0 c -0.2,0 -22.6,0.7 -42.2,-14.7 l -1.4,-0.6 -0.2,0.9 c -1,7.7 -4.2,14.4 -6,17.6 l -0.2,0.4 0.1,0.4 c 1.9,9.1 5.5,18.2 9.9,24.8 5.1,7.8 11,11.9 16.9,11.9 11.4,0 21.1,-15.5 25.6,-30.9 l 0.1,-0.3 -0.1,-0.7 c -0.9,-3 -1.4,-7.3 -1.5,-8 z m -24,37.9 c -11.3,0 -21.2,-17.8 -24.8,-34.8 1.8,-3.2 4.6,-9.2 5.8,-16.2 17.8,13.3 36.9,14.8 41.2,15 0.2,1.4 0.7,4.3 1.5,6.8 -4.5,14.6 -13.4,29.2 -23.7,29.2 z" /><circle
     style="opacity:1;fill:#b9b9b9;fill-opacity:1;stroke:none;stroke-width:3;stroke-miterlimit:4;stroke-dasharray:none;stroke-opacity:1"
     id="path4189"
     cx="76.573845"
     cy="22.457626"
     r="3.3898306" /><circle
     style="opacity:1;fill:#b9b9b9;fill-opacity:1;stroke:none;stroke-width:3;stroke-miterlimit:4;stroke-dasharray:none;stroke-opacity:1"
     id="path4189-7"
     cx="88.377716"
     cy="19.79661"
     r="3.3898306" /><circle
     style="opacity:1;fill:#b9b9b9;fill-opacity:1;stroke:none;stroke-width:3;stroke-miterlimit:4;stroke-dasharray:none;stroke-opacity:1"
     id="path4189-7-7"
     cx="100.18159"
     cy="21.067797"
     r="3.3898306" /><circle
     style="opacity:1;fill:#b9b9b9;fill-opacity:1;stroke:none;stroke-width:3;stroke-miterlimit:4;stroke-dasharray:none;stroke-opacity:1"
     id="path4189-7-7-4"
     cx="111.98546"
     cy="26.152544"
     r="3.3898306" /><circle
     style="opacity:1;fill:#b9b9b9;fill-opacity:1;stroke:none;stroke-width:3;stroke-miterlimit:4;stroke-dasharray:none;stroke-opacity:1"
     id="path4189-3"
     cx="64.769974"
     cy="29.237288"
     r="3.3898306" /><circle
     style="opacity:1;fill:#b9b9b9;fill-opacity:1;stroke:none;stroke-width:3;stroke-miterlimit:4;stroke-dasharray:none;stroke-opacity:1"
     id="path4189-3-5"
     cx="56.966103"
     cy="42.372879"
     r="3.3898306" /><circle
     style="opacity:1;fill:#b9b9b9;fill-opacity:1;stroke:none;stroke-width:3;stroke-miterlimit:4;stroke-dasharray:none;stroke-opacity:1"
     id="path4189-7-7-4-0"
     cx="123.78933"
     cy="35.898308"
     r="3.3898306" /><circle
     style="opacity:1;fill:#b9b9b9;fill-opacity:1;stroke:none;stroke-width:3;stroke-miterlimit:4;stroke-dasharray:none;stroke-opacity:1"
     id="path4189-7-7-4-5"
     cx="129.5932"
     cy="48.491524"
     r="3.3898306" /></svg>